<?xml version="1.0" encoding="UTF-8"?>
<svg version="1.1" xmlns="http://www.w3.org/2000/svg" width="1024" height="1024">
<path d="M0 0 C337.92 0 675.84 0 1024 0 C1024 337.92 1024 675.84 1024 1024 C686.08 1024 348.16 1024 0 1024 C0 686.08 0 348.16 0 0 Z " fill="#5C57EF" transform="translate(0,0)"/>
<path d="M0 0 C337.92 0 675.84 0 1024 0 C1024 337.92 1024 675.84 1024 1024 C686.08 1024 348.16 1024 0 1024 C0 686.08 0 348.16 0 0 Z M175.328125 186.515625 C171.29986462 190.81423843 167.63994554 195.37189055 164 200 C163.20851562 200.97453125 162.41703125 201.9490625 161.6015625 202.953125 C130.34627895 242.19477438 114.82543684 291.77637857 114.85955811 341.56233215 C114.85696799 343.09499853 114.85395306 344.62766424 114.8505547 346.16032904 C114.8425572 350.33741323 114.84069922 354.51448018 114.83995724 358.69157112 C114.83809391 363.21059424 114.83054026 367.72960868 114.82382202 372.24862671 C114.81028959 382.11485495 114.80422188 391.9810791 114.79981136 401.84731507 C114.79704016 408.01913364 114.79280123 414.19095066 114.78830719 420.36276817 C114.77612091 437.48307732 114.76582051 454.60338523 114.7624321 471.72369862 C114.76221253 472.81762355 114.76199297 473.91154848 114.76176675 475.03862266 C114.76154847 476.13502193 114.76133019 477.23142121 114.7611053 478.3610447 C114.76066185 480.58241197 114.76021528 482.80377923 114.75976562 485.02514648 C114.7595442 486.12699882 114.75932277 487.22885116 114.75909463 488.36409297 C114.75515082 506.19791813 114.73770664 524.03170233 114.7144061 541.86551169 C114.69062408 560.21744215 114.67822713 578.56935211 114.67706418 596.92129821 C114.67615123 607.20813748 114.67049549 617.49492336 114.65224457 627.78174782 C114.63675075 636.54484168 114.63177731 645.30786565 114.63998267 654.07097063 C114.64385668 658.53169887 114.64312125 662.99228676 114.62892532 667.45299721 C114.56048239 690.27018195 114.74183578 713.04869763 120.75 735.25 C121.00894043 736.23556885 121.26788086 737.2211377 121.53466797 738.23657227 C133.48738331 782.6145109 158.70668782 826.8380053 195 856 C196.09667064 856.90847227 197.19298962 857.81736912 198.2890625 858.7265625 C246.79872956 898.62470407 304.43770507 913.55755086 366.2244128 913.37751496 C370.46510802 913.36852651 374.70577696 913.37715787 378.94647217 913.38337708 C387.21760043 913.39278312 395.48864038 913.38633803 403.759762 913.37411413 C413.42348459 913.3603735 423.08718706 913.36214252 432.75091695 913.36424746 C450.01096452 913.36742535 467.2709706 913.35583874 484.53100586 913.33618164 C501.22047183 913.31717977 517.90988922 913.31009641 534.59936523 913.31567383 C552.84227357 913.32175249 571.08516065 913.32151672 589.32806724 913.310188 C591.27888644 913.3089809 593.22970563 913.30777492 595.18052483 913.30657005 C596.13997575 913.30596651 597.09942667 913.30536298 598.08795186 913.30474115 C604.79958413 913.30088678 611.51120842 913.3012459 618.22284126 913.3031559 C626.41837671 913.30529358 634.61386996 913.29993609 642.80939359 913.28554235 C646.9785328 913.27837441 651.14761105 913.27415496 655.31675529 913.27878571 C716.50880535 913.33815995 773.1235668 900.8077546 822 862 C823.46373047 860.84371094 823.46373047 860.84371094 824.95703125 859.6640625 C840.96061302 846.72163689 855.18073123 831.83812784 867 815 C867.44633789 814.37174316 867.89267578 813.74348633 868.35253906 813.09619141 C879.37891459 797.47617693 888.18004565 780.85423264 895 763 C895.27295898 762.28972656 895.54591797 761.57945312 895.82714844 760.84765625 C899.44497243 751.24186399 901.97861442 741.44105488 904.25 731.4375 C904.49637207 730.36242187 904.74274414 729.28734375 904.99658203 728.1796875 C908.13167634 713.77601993 909.30187251 699.53024215 909.26742554 684.82498169 C909.2711744 683.27450049 909.27578077 681.72402118 909.28115618 680.17354476 C909.29324941 675.96566472 909.29314211 671.75786498 909.29076743 667.54997158 C909.29035574 662.99073535 909.30143174 658.43152368 909.31088257 653.87229919 C909.32741903 644.95873954 909.3329888 636.04520636 909.33410732 627.13163264 C909.33506146 619.87635477 909.3391899 612.62108553 909.34550858 605.36581039 C909.36310219 584.74076922 909.37235058 564.11574876 909.37084763 543.49070002 C909.37076772 542.38130808 909.3706878 541.27191613 909.37060547 540.12890625 C909.37052371 539.01814039 909.37044195 537.90737453 909.37035771 536.76294909 C909.36954571 518.78265767 909.38866663 500.80245019 909.4168822 482.82218303 C909.44570619 464.30625533 909.45941723 445.79036843 909.45769465 427.27441776 C909.45703395 416.90089739 909.46238475 406.52746499 909.48405075 396.153965 C909.50238847 387.31820488 909.50650786 378.48257259 909.4930319 369.64680155 C909.48656462 365.15120746 909.48615449 360.6558577 909.5037384 356.16028786 C909.76201129 285.62241532 886.67215248 226.10956021 837 175.8125 C831.64191867 170.46985488 826.00085905 165.61604542 820 161 C819.46600586 160.58427734 818.93201172 160.16855469 818.38183594 159.74023438 C791.41710352 138.85532975 760.40338763 124.0932513 727.125 116.5625 C726.09375 116.32764893 725.0625 116.09279785 724 115.85083008 C703.56318844 111.52753528 683.0179564 111.70672412 662.24440193 111.73855066 C657.82165555 111.74312166 653.39892429 111.73606857 648.97618103 111.73059082 C640.33628432 111.72174381 631.69642255 111.7235979 623.05652453 111.7294161 C616.02721641 111.73395177 608.99791802 111.7345373 601.96860886 111.73236847 C600.96423949 111.732062 599.95987013 111.73175554 598.92506533 111.73143978 C596.88402983 111.73080026 594.84299434 111.73015184 592.80195884 111.7294946 C573.70691212 111.7238049 554.61188466 111.73032749 535.5168411 111.74109533 C519.17300161 111.75002686 502.82919054 111.74847943 486.48535156 111.73925781 C467.45694651 111.72852635 448.42855831 111.72435696 429.40015066 111.73048234 C427.36644133 111.73111936 425.332732 111.73174811 423.29902267 111.73236847 C421.79851188 111.7328313 421.79851188 111.7328313 420.26768775 111.73330347 C413.25715536 111.73502201 406.24663377 111.73213351 399.23610306 111.72740936 C390.67765658 111.72176834 382.11924673 111.72338399 373.56080438 111.73397085 C369.20372697 111.73918499 364.84671036 111.74135814 360.48963356 111.73467255 C287.05391624 111.63160774 227.38922146 133.78277245 175.328125 186.515625 Z " fill="#FEFEFE" transform="translate(0,0)"/>
<path d="M0 0 C5.28680219 2.03562241 9.70612485 5.04816635 14.36328125 8.2421875 C16.42449336 9.62041764 18.4870075 10.9967024 20.55078125 12.37109375 C21.56785156 13.05187988 22.58492187 13.73266602 23.6328125 14.43408203 C30.47078067 18.96412152 37.48596744 23.20222961 44.55078125 27.3671875 C45.28071289 27.79870117 46.01064453 28.23021484 46.76269531 28.67480469 C72.61607405 43.8341317 100.91234901 53.88926481 130.734375 57.390625 C131.43372665 57.47390045 132.13307831 57.5571759 132.85362244 57.64297485 C136.31872041 58.05047487 139.78348214 58.42787026 143.2565918 58.76025391 C144.52156494 58.89866699 145.78653809 59.03708008 147.08984375 59.1796875 C148.21600098 59.28925781 149.3421582 59.39882813 150.50244141 59.51171875 C153.49308316 60.35099544 155.36407656 61.21233429 157.50372887 63.48182106 C159.97202296 67.92633493 159.21798267 73.5301867 159.16601562 78.46557617 C159.16951928 79.81328021 159.17518063 81.16098011 159.18283081 82.50866699 C159.19708251 86.16936519 159.17999645 89.82931204 159.15654564 93.4899385 C159.13635662 97.34682974 159.14232186 101.20369205 159.14465332 105.06062317 C159.1445997 111.5598271 159.12484621 118.05874094 159.09277344 124.55786133 C159.05620425 132.0028144 159.0470524 139.44738312 159.05407095 146.89241427 C159.06045789 154.10746377 159.04945215 161.32238529 159.03010559 168.53740883 C159.02206621 171.57776063 159.0191967 174.61804575 159.02079773 177.65840721 C159.0244876 231.93072222 148.75722606 278.49899083 110.55078125 318.3671875 C109.48537109 319.49447266 109.48537109 319.49447266 108.3984375 320.64453125 C80.34420421 349.61669446 42.1236613 369.38334726 6.55078125 387.3671875 C5.83962158 387.75398682 5.12846191 388.14078613 4.39575195 388.53930664 C1.28574399 389.93483886 -1.31519849 389.33209349 -4.44921875 388.3671875 C-8.70811832 386.5147237 -12.78944988 384.3629992 -16.88671875 382.1796875 C-18.09084245 381.54464678 -19.29502638 380.90972024 -20.49926758 380.27490234 C-62.94595819 357.78165766 -106.96604698 331.57233909 -133.44921875 290.3671875 C-133.82320801 289.79129883 -134.19719727 289.21541016 -134.58251953 288.62207031 C-152.92535566 259.96085983 -158.52978345 224.55520832 -158.64208984 191.14086914 C-158.6500148 189.75806485 -158.65828511 188.37526251 -158.66687012 186.99246216 C-158.6927635 182.50410858 -158.70834131 178.01574702 -158.72265625 173.52734375 C-158.72802509 171.97345921 -158.7334026 170.41957471 -158.7387886 168.86569023 C-158.76034853 162.4065751 -158.77908928 155.94746218 -158.790411 149.48832035 C-158.80669842 140.26291987 -158.84007002 131.03793685 -158.89681184 121.81269366 C-158.93548225 115.30287327 -158.95503885 108.79316487 -158.96033156 102.28323263 C-158.96398231 98.40252377 -158.97597827 94.52226366 -159.0084343 90.64167976 C-159.03847292 86.9995147 -159.04484256 83.35807134 -159.03305054 79.71580887 C-159.03272435 77.74514766 -159.05720476 75.77453118 -159.08242798 73.80403137 C-159.01432073 64.17617313 -159.01432073 64.17617313 -156.10327148 61.0823822 C-152.89694525 59.01027802 -150.79080479 58.626948 -146.98828125 58.3984375 C-145.7235498 58.30530273 -144.45881836 58.21216797 -143.15576172 58.11621094 C-142.49010193 58.07620972 -141.82444214 58.0362085 -141.13861084 57.99499512 C-137.62778423 57.77763797 -134.12493399 57.47242584 -130.62109375 57.1640625 C-129.92011566 57.10293274 -129.21913757 57.04180298 -128.49691772 56.9788208 C-87.91500233 53.25403386 -51.50002423 33.14590674 -18.3515625 10.7265625 C-17.5457373 10.18451172 -16.73991211 9.64246094 -15.90966797 9.08398438 C-14.19168503 7.88524891 -12.50759093 6.63711171 -10.85205078 5.35351562 C-4.44724403 0.47343255 -4.44724403 0.47343255 0 0 Z " fill="#5C57EF" transform="translate(512.44921875,316.6328125)"/>
<path d="M0 0 C37.09599876 25.12051289 75.32909588 43.14684389 120.68139648 45.44726562 C131.48969113 46.13272716 140.725131 50.14500274 148.2199707 58.04736328 C155.06337302 66.44054373 158.6846516 76.73285631 158.70133972 87.49095154 C158.70560471 88.7365686 158.70986969 89.98218567 158.71426392 91.26554871 C158.7139144 92.63870242 158.71345287 94.01185612 158.71289062 95.38500977 C158.71588459 96.83771857 158.71928766 98.29042658 158.72306824 99.74313354 C158.73189978 103.68840794 158.73424632 107.63366064 158.73488402 111.57894397 C158.73559633 114.05343076 158.73773432 116.5279121 158.74038124 119.00239754 C158.74963996 127.66428093 158.75371648 136.32614894 158.75292969 144.98803711 C158.75233246 153.0101219 158.76281264 161.03213868 158.77867335 169.05420631 C158.79185812 175.97434214 158.79710888 182.89445609 158.79647428 189.81460434 C158.79622198 193.93221268 158.79892058 198.04976087 158.80965233 202.16735649 C158.91748841 246.66160451 158.91748841 246.66160451 153.88012695 267.86767578 C153.6173999 268.99915039 153.35467285 270.130625 153.08398438 271.29638672 C147.15494536 296.08832717 137.77796852 319.69331395 122.56762695 340.30517578 C122.16721191 340.85818359 121.76679687 341.41119141 121.35424805 341.98095703 C115.04075151 350.66678231 108.0019509 358.56874588 100.56762695 366.30517578 C99.71040039 367.20365234 98.85317383 368.10212891 97.9699707 369.02783203 C92.20136788 374.94270687 86.07538184 380.22548493 79.56762695 385.30517578 C78.93937012 385.79920898 78.31111328 386.29324219 77.66381836 386.80224609 C67.92505486 394.44167719 58.0170427 401.66899136 47.56762695 408.30517578 C46.91842285 408.71912598 46.26921875 409.13307617 45.6003418 409.55957031 C27.82305756 420.82553227 9.31457017 431.00251024 -9.43237305 440.55517578 C-10.28476562 440.99667969 -11.1371582 441.43818359 -12.01538086 441.89306641 C-20.08559254 445.9297615 -28.38452415 448.74532726 -37.49487305 448.68017578 C-38.57897461 448.68791016 -39.66307617 448.69564453 -40.7800293 448.70361328 C-49.17097015 447.78823792 -56.65595035 444.53368509 -64.18237305 440.86767578 C-65.08286377 440.43302002 -65.98335449 439.99836426 -66.91113281 439.55053711 C-104.04171868 421.41729399 -140.14973225 399.62081725 -170.43237305 371.30517578 C-171.36823242 370.43505859 -172.3040918 369.56494141 -173.26831055 368.66845703 C-201.74519093 341.5774735 -218.48582491 304.96993713 -226.80737305 267.05517578 C-227.04601074 265.98098389 -227.28464844 264.90679199 -227.53051758 263.80004883 C-231.8951882 242.72623245 -231.74742691 221.5113598 -231.73395562 200.10567427 C-231.73287276 196.69076492 -231.73780119 193.27587364 -231.74256104 189.86096823 C-231.75357405 181.80573537 -231.7541372 173.7505492 -231.74804688 165.6953125 C-231.74198295 157.41531757 -231.75439799 149.13549153 -231.77561694 140.85552537 C-231.79326188 133.70427101 -231.79923065 126.55307034 -231.7959792 119.40179503 C-231.79417441 115.14839466 -231.79672379 110.89511547 -231.81069374 106.64173508 C-231.82331873 102.65073741 -231.82128425 98.66000403 -231.80828285 94.66901016 C-231.80592952 93.21221576 -231.80860677 91.75540242 -231.81690598 90.29862976 C-231.88961364 76.53713931 -230.01963681 67.24739925 -220.4284668 57.20751953 C-209.59380916 46.83803503 -197.20461493 44.22854781 -182.74487305 43.43017578 C-141.05671429 40.6627178 -105.98307796 23.23266449 -72.4050293 -0.85888672 C-45.51500045 -20.12865684 -27.02603482 -18.35424511 0 0 Z M-44.55737305 24.91064453 C-45.3347583 25.47525391 -46.11214355 26.03986328 -46.91308594 26.62158203 C-47.74445068 27.23904297 -48.57581543 27.85650391 -49.43237305 28.49267578 C-88.07178654 56.26817236 -129.49875135 76.60869889 -177.41479492 79.75610352 C-179.46188365 79.89370489 -181.50502502 80.05997386 -183.54956055 80.23095703 C-184.75209473 80.31772705 -185.95462891 80.40449707 -187.19360352 80.49389648 C-190.32581131 81.27848314 -192.17680727 82.04904344 -194.39299393 84.41140652 C-196.85511502 88.89743973 -196.08975254 94.5454493 -196.03173828 99.51464844 C-196.03360339 100.87370756 -196.0376423 102.23276517 -196.04368591 103.59181213 C-196.05366159 107.28098401 -196.03247553 110.96938731 -196.00520587 114.65844774 C-195.98130449 118.5372873 -195.98432007 122.41611335 -195.98390198 126.29501343 C-195.97927141 132.82359719 -195.9556374 139.35188977 -195.91943359 145.88037109 C-195.87794328 153.38108068 -195.86013292 160.881527 -195.85681385 168.38234484 C-195.85318066 176.41201541 -195.83423534 184.44159378 -195.80969357 192.47122526 C-195.80352632 194.75965253 -195.79985122 197.04807273 -195.79665947 199.33650589 C-195.76885496 215.08179998 -195.64311069 230.68451072 -193.43237305 246.30517578 C-193.32790485 247.04530757 -193.22343666 247.78543936 -193.11580276 248.54799938 C-186.94540264 291.93423335 -164.51864094 330.62324606 -129.54077148 357.10107422 C-104.49287244 375.63842636 -77.72560766 391.43770129 -50.14819336 405.86816406 C-48.46489402 406.75884187 -46.79431642 407.6746272 -45.14624023 408.62890625 C-42.01988861 410.38269495 -39.72112409 411.29871374 -36.1159668 411.37939453 C-30.9237671 409.86523237 -26.29732393 407.58344086 -21.49487305 405.11767578 C-20.45306885 404.58956299 -19.41126465 404.0614502 -18.33789062 403.51733398 C14.86156342 386.46345057 46.46548703 366.06239748 73.56762695 340.30517578 C74.27016602 339.65548828 74.97270508 339.00580078 75.6965332 338.33642578 C107.75426002 307.7682499 120.58030962 263.77306276 121.86303711 220.57723999 C122.01352771 212.83894079 122.04054221 205.10117569 122.0364666 197.36158919 C122.0363447 194.28390016 122.04499155 191.20625604 122.05324411 188.12857991 C122.07225049 180.87792392 122.07543884 173.62738301 122.06860352 166.37670898 C122.06190389 158.91887784 122.08511379 151.46153381 122.12191725 144.00380152 C122.1525844 137.55311771 122.16397982 131.10259148 122.16008043 124.65183622 C122.15801839 120.81832415 122.16341512 116.98519646 122.18797302 113.15175438 C122.21020261 109.56679825 122.20839563 105.98264938 122.1880455 102.39768982 C122.1830096 100.46059864 122.20265749 98.52349243 122.22305298 96.58650208 C122.39267525 89.75879239 122.39267525 89.75879239 119.21969604 84.03999329 C116.05254114 81.9682389 113.867122 81.48354989 110.10668945 81.11767578 C108.84195801 80.97934326 107.57722656 80.84101074 106.27416992 80.69848633 C105.27568024 80.60293961 105.27568024 80.60293961 104.25701904 80.50546265 C100.74509875 80.16473691 97.2429333 79.74267253 93.73950195 79.32470703 C93.03852386 79.24227249 92.33754578 79.15983795 91.61532593 79.0749054 C47.71686371 73.78570608 10.37415812 52.64739097 -25.75268555 28.41845703 C-26.39407471 27.99266357 -27.03546387 27.56687012 -27.69628906 27.12817383 C-29.35592686 26.02272484 -31.00594552 24.90287064 -32.6550293 23.78173828 C-37.33721504 21.29247498 -40.37887782 21.80606627 -44.55737305 24.91064453 Z " fill="#FEFDFE" transform="translate(549.432373046875,294.69482421875)"/>
<path d="M0 0 C0.33 0.66 0.66 1.32 1 2 C-0.29296875 4.390625 -0.29296875 4.390625 -2.1875 7.25 C-2.83460938 8.23097656 -3.48171875 9.21195313 -4.1484375 10.22265625 C-5.06496094 11.59744141 -5.06496094 11.59744141 -6 13 C-6.42539063 13.67933594 -6.85078125 14.35867187 -7.2890625 15.05859375 C-8.13738172 16.40878122 -9.06005063 17.71192124 -10 19 C-10.66 19 -11.32 19 -12 19 C-12.0825 19.86625 -12.165 20.7325 -12.25 21.625 C-12.95582987 24.80123441 -13.86389944 26.49444867 -15.74609375 29.078125 C-18.60238284 33.45598865 -20.72022236 38.30365806 -23 43 C-23.66 43 -24.32 43 -25 43 C-25.66 44.98 -26.32 46.96 -27 49 C-28.22161093 45.33516721 -27.70943473 44.77816083 -26.04296875 41.421875 C-25.59469727 40.51526123 -25.14642578 39.60864746 -24.68457031 38.67456055 C-24.19053711 37.70945557 -23.69650391 36.74435059 -23.1875 35.75 C-22.68702148 34.76233643 -22.18654297 33.77467285 -21.67089844 32.75708008 C-15.60191304 20.99674779 -8.38555802 10.24593017 0 0 Z " fill="#2F5FF3" transform="translate(162,203)"/>
<path d="M0 0 C1 3 1 3 -0.3359375 6.23046875 C-1.00399858 7.55540572 -1.6846194 8.87405483 -2.375 10.1875 C-2.73932129 10.89438965 -3.10364258 11.6012793 -3.47900391 12.32958984 C-4.63838243 14.56091188 -5.816282 16.78150542 -7 19 C-7.36480469 19.6894873 -7.72960937 20.37897461 -8.10546875 21.08935547 C-14.59496623 33.27473408 -22.07143758 44.45669757 -31 55 C-31.495 53.515 -31.495 53.515 -32 52 C-31.01 51.01 -30.02 50.02 -29 49 C-29.66 48.67 -30.32 48.34 -31 48 C-30.401875 47.979375 -29.80375 47.95875 -29.1875 47.9375 C-25.71992798 46.45139771 -25.37964223 43.3591289 -24 40 C-22.515 39.505 -22.515 39.505 -21 39 C-21 38.34 -21 37.68 -21 37 C-20.34 37 -19.68 37 -19 37 C-18.896875 36.236875 -18.79375 35.47375 -18.6875 34.6875 C-17.91069495 31.65089843 -17.19662459 31.11526813 -15 29 C-12.20858287 24.46394717 -10.03944543 19.92865979 -8 15 C-7.27502 13.35231818 -6.54574796 11.70651911 -5.8125 10.0625 C-5.46832031 9.29035156 -5.12414062 8.51820313 -4.76953125 7.72265625 C-4.38861328 6.86994141 -4.38861328 6.86994141 -4 6 C-3.34 6 -2.68 6 -2 6 C-1.34 4.02 -0.68 2.04 0 0 Z " fill="#632DEA" transform="translate(890,770)"/>
<path d="M0 0 C0.66 0 1.32 0 2 0 C2.32845764 7.59458156 1.13078495 14.35934643 -0.5625 21.75 C-0.82699951 22.9248999 -1.09149902 24.0997998 -1.36401367 25.31030273 C-3.97759386 36.54710064 -6.80800343 48.61600685 -12 59 C-12.66 58.67 -13.32 58.34 -14 58 C-13.66226563 57.14277344 -13.32453125 56.28554688 -12.9765625 55.40234375 C-9.29862364 45.97363921 -6.6944996 36.96870509 -5 27 C-4.34 27 -3.68 27 -3 27 C-2.85691406 25.71222656 -2.71382812 24.42445313 -2.56640625 23.09765625 C-1.7109375 15.3984375 -0.85546875 7.69921875 0 0 Z " fill="#5E2AEA" transform="translate(905,709)"/>
<path d="M0 0 C0.33 0 0.66 0 1 0 C1.90664815 5.34922407 2.14998718 7.9653178 0 13 C-0.38218767 14.65614657 -0.71395102 16.32457024 -1 18 C-1.16242188 18.94488281 -1.32484375 19.88976562 -1.4921875 20.86328125 C-2.3621723 26.23711042 -3.19539707 31.61600804 -4 37 C-4.99 37 -5.98 37 -7 37 C-6.00831962 24.50482718 -4.11394053 11.87499147 0 0 Z " fill="#3F68F3" transform="translate(123,281)"/>
<path d="M0 0 C0 0.66 0 1.32 0 2 C-1.98 2 -3.96 2 -6 2 C-6 2.66 -6 3.32 -6 4 C-9.25142814 5.37939376 -12.49054285 6.42759893 -15.89453125 7.359375 C-19.53778799 8.46789839 -23.08343121 9.84946228 -26.64453125 11.1953125 C-29 12 -29 12 -31 12 C-31 12.66 -31 13.32 -31 14 C-33.65228812 15.07525194 -36.28368454 16.09456151 -39 17 C-39 16.01 -39 15.02 -39 14 C-7.528 0 -7.528 0 0 0 Z " fill="#335CF3" transform="translate(282,121)"/>
<path d="M0 0 C1.58941406 0.01353516 1.58941406 0.01353516 3.2109375 0.02734375 C4.00757813 0.03894531 4.80421875 0.05054687 5.625 0.0625 C5.625 0.3925 5.625 0.7225 5.625 1.0625 C4.635 1.17207031 3.645 1.28164062 2.625 1.39453125 C-5.77460806 2.25949416 -5.77460806 2.25949416 -13.8125 4.6875 C-18.10789955 6.34537351 -20.79612502 6.20786111 -25.375 6.0625 C-27.73286 6.30410235 -30.03535555 6.67255926 -32.375 7.0625 C-30.18641783 4.87391783 -29.38254977 4.65330923 -26.453125 4.02734375 C-25.28523438 3.77307617 -25.28523438 3.77307617 -24.09375 3.51367188 C-23.2790625 3.34416016 -22.464375 3.17464844 -21.625 3 C-20.82578125 2.82662109 -20.0265625 2.65324219 -19.203125 2.47460938 C-12.7562689 1.09086806 -6.624607 -0.07360674 0 0 Z " fill="#3259F2" transform="translate(315.375,113.9375)"/>
<path d="M0 0 C0.66 0.33 1.32 0.66 2 1 C0.27840626 2.94470746 -1.45166256 4.88057309 -3.1875 6.8125 C-3.67025391 7.35970703 -4.15300781 7.90691406 -4.65039062 8.47070312 C-7.55242203 11.68436206 -10.23486603 13.80764351 -14 16 C-15.81511488 17.68262474 -17.58555343 19.41450152 -19.3125 21.1875 C-20.19550781 22.08855469 -21.07851562 22.98960937 -21.98828125 23.91796875 C-22.65214844 24.60503906 -23.31601563 25.29210937 -24 26 C-24 23 -24 23 -22.55053711 21.1940918 C-21.8828833 20.53578369 -21.21522949 19.87747559 -20.52734375 19.19921875 C-19.79193359 18.46896484 -19.05652344 17.73871094 -18.29882812 16.98632812 C-17.1299707 15.8484082 -17.1299707 15.8484082 -15.9375 14.6875 C-15.18533203 13.94048828 -14.43316406 13.19347656 -13.65820312 12.42382812 C-9.25649617 8.0830972 -4.74423306 3.96297822 0 0 Z " fill="#2354F3" transform="translate(198,165)"/>
<path d="M0 0 C1.65 0 3.3 0 5 0 C1.54936695 2.89012413 -2.27270136 4.61883202 -6.375 6.375 C-7.0752832 6.67664063 -7.77556641 6.97828125 -8.49707031 7.2890625 C-28.43723861 15.77194617 -28.43723861 15.77194617 -33 14 C-31.56445975 13.49440092 -30.1264798 12.9957251 -28.6875 12.5 C-27.88699219 12.2215625 -27.08648438 11.943125 -26.26171875 11.65625 C-24 11 -24 11 -21 11 C-21 10.34 -21 9.68 -21 9 C-19.35 9 -17.7 9 -16 9 C-15.67 8.01 -15.34 7.02 -15 6 C-14.195625 5.896875 -13.39125 5.79375 -12.5625 5.6875 C-8.21752614 4.84899627 -4.16542473 3.47178341 0 2 C0 1.34 0 0.68 0 0 Z " fill="#5E26EA" transform="translate(776,887)"/>
<path d="M0 0 C1.04449911 3.13349732 0.93423645 3.98968256 0 7 C-0.66 7 -1.32 7 -2 7 C-2 8.65 -2 10.3 -2 12 C-2.66 12 -3.32 12 -4 12 C-3.9175 12.804375 -3.835 13.60875 -3.75 14.4375 C-4.08293982 19.18189247 -5.90164524 22.78455517 -8 27 C-9.16315608 23.60370071 -8.83650952 21.68958381 -7.63671875 18.33984375 C-7.17168945 17.0259668 -7.17168945 17.0259668 -6.69726562 15.68554688 C-6.36404297 14.77869141 -6.03082031 13.87183594 -5.6875 12.9375 C-5.36587891 12.02677734 -5.04425781 11.11605469 -4.71289062 10.17773438 C-3.37795504 6.45800626 -2.20404541 3.30606811 0 0 Z " fill="#2756F3" transform="translate(133,253)"/>
<path d="M0 0 C0.66 0.33 1.32 0.66 2 1 C-0.41110775 2.82032638 -2.82833135 4.63132015 -5.25 6.4375 C-5.93191406 6.95376953 -6.61382813 7.47003906 -7.31640625 8.00195312 C-7.98027344 8.49501953 -8.64414062 8.98808594 -9.328125 9.49609375 C-9.9355957 9.95169678 -10.54306641 10.4072998 -11.16894531 10.87670898 C-13.10878204 12.06673416 -14.77696914 12.56869768 -17 13 C-16.67 11.35 -16.34 9.7 -16 8 C-14.35 8 -12.7 8 -11 8 C-10.67 7.34 -10.34 6.68 -10 6 C-9.01 6 -8.02 6 -7 6 C-7 5.34 -7 4.68 -7 4 C-6.34 4 -5.68 4 -5 4 C-5 3.34 -5 2.68 -5 2 C-2.625 0.9375 -2.625 0.9375 0 0 Z " fill="#642FEB" transform="translate(816,864)"/>
<path d="M0 0 C1 2 1 2 0.375 4.5 C-1.45418234 9.1561005 -3.70132759 13.56057924 -6 18 C-6.66 18 -7.32 18 -8 18 C-8.66 19.98 -9.32 21.96 -10 24 C-11 21 -11 21 -10.21142578 18.83935547 C-9.7936084 18.02354004 -9.37579102 17.20772461 -8.9453125 16.3671875 C-8.49542969 15.47902344 -8.04554688 14.59085938 -7.58203125 13.67578125 C-7.10121094 12.75152344 -6.62039062 11.82726562 -6.125 10.875 C-5.65191406 9.94300781 -5.17882812 9.01101562 -4.69140625 8.05078125 C-1.18205915 1.18205915 -1.18205915 1.18205915 0 0 Z " fill="#2657F3" transform="translate(145,228)"/>
<path d="M0 0 C1.02577148 0.00676758 1.02577148 0.00676758 2.07226562 0.01367188 C3.73571604 0.0253044 5.3991205 0.04323306 7.0625 0.0625 C7.3925 0.7225 7.7225 1.3825 8.0625 2.0625 C2.76596121 3.00209624 -2.02418517 3.05091115 -7.375 2.625 C-8.10654297 2.57279297 -8.83808594 2.52058594 -9.59179688 2.46679688 C-11.37418622 2.33865124 -13.1559257 2.2015184 -14.9375 2.0625 C-14.9375 1.7325 -14.9375 1.4025 -14.9375 1.0625 C-9.89895894 0.23038724 -5.1249338 -0.0453534 0 0 Z " fill="#355AF0" transform="translate(337.9375,111.9375)"/>
<path d="M0 0 C0.33 0 0.66 0 1 0 C2.43484866 6.69596042 1.59058175 10.20575649 -2 16 C-2.33 16 -2.66 16 -3 16 C-2.57910004 10.39538469 -2.08386889 5.27913453 0 0 Z " fill="#3360F3" transform="translate(123,281)"/>
<path d="M0 0 C0.99 0.33 1.98 0.66 3 1 C2.67 1.66 2.34 2.32 2 3 C1.34 3 0.68 3 0 3 C-0.0825 3.86625 -0.165 4.7325 -0.25 5.625 C-1.10607746 9.47734858 -2.67368546 11.848219 -5 15 C-6 13 -6 13 -5.3125 10.3125 C-3.84390539 6.60604693 -2.0494309 3.41571816 0 0 Z " fill="#3966F4" transform="translate(150,219)"/>
<path d="M0 0 C0.99 0.33 1.98 0.66 3 1 C-0.96 4.96 -4.92 8.92 -9 13 C-9.66 12.67 -10.32 12.34 -11 12 C-9.38405168 9.95880212 -7.7143618 7.95927063 -6 6 C-5.34 6 -4.68 6 -4 6 C-3.566875 4.7934375 -3.566875 4.7934375 -3.125 3.5625 C-2 1 -2 1 0 0 Z " fill="#5D25E9" transform="translate(843,839)"/>
<path d="M0 0 C0.66 0.33 1.32 0.66 2 1 C0.11113408 2.3225074 -1.78639839 3.63264256 -3.6875 4.9375 C-4.74324219 5.66839844 -5.79898438 6.39929688 -6.88671875 7.15234375 C-9.75616298 8.85528869 -11.72538283 9.61725254 -15 10 C-12.0761589 6.81980317 -9.16598831 4.74648691 -5.375 2.6875 C-4.41335937 2.15511719 -3.45171875 1.62273437 -2.4609375 1.07421875 C-1.64882812 0.71972656 -0.83671875 0.36523438 0 0 Z " fill="#2857F3" transform="translate(238,138)"/>
<path d="M0 0 C-2.2863012 1.36402043 -4.57821749 2.71634274 -6.875 4.0625 C-7.85146484 4.64741211 -7.85146484 4.64741211 -8.84765625 5.24414062 C-10.53065725 6.22444533 -12.26296199 7.11898432 -14 8 C-14.66 7.67 -15.32 7.34 -16 7 C-11.25 4 -11.25 4 -9 4 C-9 3.34 -9 2.68 -9 2 C-8.34 2 -7.68 2 -7 2 C-7 1.34 -7 0.68 -7 0 C-2.25 -1.125 -2.25 -1.125 0 0 Z " fill="#6028EA" transform="translate(799,878)"/>
<path d="M0 0 C0.66 0.33 1.32 0.66 2 1 C-1.63 4.96 -5.26 8.92 -9 13 C-9.66 12.67 -10.32 12.34 -11 12 C-8.01665146 6.98797445 -4.56048012 3.61251516 0 0 Z " fill="#3561F4" transform="translate(198,165)"/>
<path d="M0 0 C0.33 0 0.66 0 1 0 C1 3.3 1 6.6 1 10 C1.66 10 2.32 10 3 10 C3.125 12.875 3.125 12.875 3 16 C2.34 16.66 1.68 17.32 1 18 C-0.2039337 14.24600202 -0.09877617 10.66782588 -0.0625 6.75 C-0.05347656 5.48671875 -0.04445313 4.2234375 -0.03515625 2.921875 C-0.02355469 1.95765625 -0.01195313 0.9934375 0 0 Z " fill="#384CEF" transform="translate(116,696)"/>
<path d="M0 0 C-4.82646677 3.21764451 -10.19821824 4.36261136 -16 4 C-13.71185277 1.71185277 -12.19248378 1.24548839 -9.125 0.3125 C-8.26132812 0.04050781 -7.39765625 -0.23148437 -6.5078125 -0.51171875 C-3.91305068 -1.01692938 -2.469215 -0.85561171 0 0 Z " fill="#3E4CF0" transform="translate(424,367)"/>
<path d="M0 0 C0.66 0 1.32 0 2 0 C0.50958227 3.79379058 -1.69062512 5.68343758 -5 8 C-5.66 8 -6.32 8 -7 8 C-7 7.01 -7 6.02 -7 5 C-4.46815512 2.64276511 -3.52809907 2 0 2 C0 1.34 0 0.68 0 0 Z " fill="#6831EB" transform="translate(827,854)"/>
<path d="M0 0 C-2.28929053 1.17154293 -4.58118362 2.33738074 -6.875 3.5 C-7.52597656 3.83386719 -8.17695313 4.16773438 -8.84765625 4.51171875 C-13.7734375 7 -13.7734375 7 -16 7 C-16 6.01 -16 5.02 -16 4 C-13.90049414 3.13444052 -11.7952093 2.28288723 -9.6875 1.4375 C-8.51574219 0.96183594 -7.34398437 0.48617188 -6.13671875 -0.00390625 C-3 -1 -3 -1 0 0 Z " fill="#3248EF" transform="translate(349,341)"/>
<path d="M0 0 C2.36574234 3.5486135 2.10865265 4.5764525 1.625 8.6875 C1.51414062 9.68136719 1.40328125 10.67523437 1.2890625 11.69921875 C1.19367187 12.45847656 1.09828125 13.21773437 1 14 C-1.36574234 10.4513865 -1.10865265 9.4235475 -0.625 5.3125 C-0.51414062 4.31863281 -0.40328125 3.32476563 -0.2890625 2.30078125 C-0.19367187 1.54152344 -0.09828125 0.78226563 0 0 Z " fill="#6232EA" transform="translate(907,694)"/>
<path d="M0 0 C1.04449911 3.13349732 0.93423645 3.98968256 0 7 C-0.66 7 -1.32 7 -2 7 C-2 8.65 -2 10.3 -2 12 C-3.1171875 10.265625 -3.1171875 10.265625 -4 8 C-3.3203125 5.859375 -3.3203125 5.859375 -2.125 3.75 C-1.73570312 3.04359375 -1.34640625 2.3371875 -0.9453125 1.609375 C-0.63335937 1.07828125 -0.32140625 0.5471875 0 0 Z " fill="#305EF2" transform="translate(133,253)"/>
<path d="M0 0 C0.66 0 1.32 0 2 0 C2 2.97 2 5.94 2 9 C1.01 9.33 0.02 9.66 -1 10 C-0.67 6.7 -0.34 3.4 0 0 Z " fill="#6637E9" transform="translate(905,709)"/>
<path d="M0 0 C2 2 2 2 2.1953125 4.3828125 C2.17210938 5.28773438 2.14890625 6.19265625 2.125 7.125 C2.10695313 8.03507813 2.08890625 8.94515625 2.0703125 9.8828125 C2.03550781 10.93082031 2.03550781 10.93082031 2 12 C-0.97921225 8.59956236 -0.97921225 8.59956236 -1.07421875 5.859375 C-0.53710938 2.9296875 -0.53710938 2.9296875 0 0 Z " fill="#5363EF" transform="translate(116,691)"/>
<path d="M0 0 C0.66 0.33 1.32 0.66 2 1 C-1.17320782 4.53586014 -3.16743695 6.58578031 -8 7 C-5.42215154 4.35247996 -3.08351902 2.05567935 0 0 Z " fill="#4F36ED" transform="translate(613,691)"/>
<path d="M0 0 C2.97 0.33 5.94 0.66 9 1 C8.67 1.66 8.34 2.32 8 3 C5.36 3 2.72 3 0 3 C0 2.01 0 1.02 0 0 Z " fill="#6861F0" transform="translate(655,337)"/>
<path d="M0 0 C3.96 0.33 7.92 0.66 12 1 C12 1.33 12 1.66 12 2 C7.38 2.33 2.76 2.66 -2 3 C-1.34 2.67 -0.68 2.34 0 2 C0 1.34 0 0.68 0 0 Z " fill="#2E44EE" transform="translate(352,337)"/>
<path d="M0 0 C0 4.38968456 -2.12805101 5.76905739 -5 9 C-5.66 8.67 -6.32 8.34 -7 8 C-4.69 5.36 -2.38 2.72 0 0 Z " fill="#285AF4" transform="translate(170,193)"/>
</svg>
